<?xml version="1.0" encoding="UTF-8" standalone="no"?>
<svg width="500px" height="136px" viewBox="0 0 500 136" version="1.1" xmlns="http://www.w3.org/2000/svg" xmlns:xlink="http://www.w3.org/1999/xlink">
    <!-- Generator: Sketch 3.7.2 (28276) - http://www.bohemiancoding.com/sketch -->
    <title>Iconography</title>
    <desc>Created with Sketch.</desc>
    <defs></defs>
    <g id="May-1st-Reboot-Final" stroke="none" stroke-width="1" fill="none" fill-rule="evenodd">
        <g id="Iconography">
            <g id="Iconography-Copy" transform="translate(41.000000, -1.000000)">
                <g id="Page-1" transform="translate(0.000000, 1.000000)">
                    <polygon id="Fill-1" fill="#000000" points="0.5 29.5 2 29.5 2 23.5 0.5 23.5"></polygon>
                    <polygon id="Fill-2" fill="#000000" points="0.5 41.5 2 41.5 2 34 0.5 34"></polygon>
                    <polygon id="Fill-3" fill="#000000" points="0.5 52 2 52 2 44.5 0.5 44.5"></polygon>
                    <path d="M34.25,130.75 C30.954,130.75 28.25,128.046 28.25,124.75 C28.25,121.454 30.954,118.75 34.25,118.75 C37.546,118.75 40.25,121.454 40.25,124.75 C40.25,128.046 37.546,130.75 34.25,130.75 L34.25,130.75 Z M34.25,120.25 C31.704,120.25 29.75,122.204 29.75,124.75 C29.75,127.296 31.704,129.25 34.25,129.25 C36.796,129.25 38.75,127.296 38.75,124.75 C38.75,122.204 36.796,120.25 34.25,120.25 L34.25,120.25 Z" id="Fill-4" fill="#000000"></path>
                    <path d="M53.75,134.5 L14.75,134.5 C7.704,134.5 2,128.796 2,121.75 L2,13.75 C2,6.704 7.704,1 14.75,1 L53.75,1 C60.796,1 66.5,6.704 66.5,13.75 L66.5,121.75 C66.5,128.796 60.796,134.5 53.75,134.5 L53.75,134.5 Z M14.75,2.5 C8.602,2.5 3.5,7.602 3.5,13.75 L3.5,121.75 C3.5,127.898 8.602,133 14.75,133 L53.75,133 C59.898,133 65,127.898 65,121.75 L65,13.75 C65,7.602 59.898,2.5 53.75,2.5 L14.75,2.5 Z" id="Fill-5" fill="#000000"></path>
                    <path d="M63.5,116.5 L5,116.5 L5,19 L63.5,19 L63.5,116.5 Z M6.5,115 L62,115 L62,20.5 L6.5,20.5 L6.5,115 Z" id="Fill-6" fill="#000000"></path>
                    <g id="Group-9" transform="translate(30.000000, 12.000000)">
                        <path d="M0.5,0.25 L12.5,0.25" id="Fill-7" fill="#000000"></path>
                        <path d="M0.5,0.25 L12.5,0.25" id="Stroke-8" stroke="#5D5D5D" stroke-width="0.75"></path>
                    </g>
                    <g id="Group-12" transform="translate(26.000000, 12.000000)">
                        <path d="M1.5,0.25 L0,0.25" id="Fill-10" fill="#000000"></path>
                        <path d="M1.5,0.25 L0,0.25" id="Stroke-11" stroke="#5D5D5D" stroke-width="0.75"></path>
                    </g>
                    <g id="Group-15" transform="translate(32.000000, 6.000000)">
                        <path d="M3,1.75 L1.5,1.75" id="Fill-13" fill="#000000"></path>
                        <path d="M3,1.75 L1.5,1.75" id="Stroke-14" stroke="#5D5D5D" stroke-width="0.75"></path>
                    </g>
                    <polygon id="Fill-16" fill="#000000" points="66.5 40 68 40 68 29.5 66.5 29.5"></polygon>
                </g>
                <g id="Page-1" transform="translate(125.000000, 23.000000)" fill="#000000">
                    <path d="M126,79 L124.5,79 L124.5,7.296 C124.5,4.594 122.398,2.5 119.704,2.5 L16.046,2.5 C13.796,2.5 12,4.296 12,6.546 L12,79 L10.5,79 L10.5,6.546 C10.5,3.546 13.046,1 16.046,1 L119.696,1 C123.148,1 125.992,3.852 125.992,7.296 L125.992,79 L126,79 Z" id="Fill-1"></path>
                    <path d="M129.454,89.5 L7.796,89.5 C3.454,89.5 0,86.046 0,81.704 L0,79 L136.5,79 L136.5,82.454 C136.5,86.352 133.352,89.5 129.454,89.5 L129.454,89.5 Z M1.5,80.5 L1.5,81.704 C1.5,85.148 4.352,88 7.796,88 L129.446,88 C132.594,88 134.992,85.454 134.992,82.454 L134.992,80.5 L1.5,80.5 Z" id="Fill-2"></path>
                    <path d="M120,76 L16.5,76 L16.5,7 L120,7 L120,76 Z M18,74.5 L118.5,74.5 L118.5,8.5 L18,8.5 L18,74.5 Z" id="Fill-3"></path>
                    <polygon id="Fill-4" points="67.5 5.5 69 5.5 69 4 67.5 4"></polygon>
                    <polygon id="Fill-5" points="112.5 85 118.5 85 118.5 83.5 112.5 83.5"></polygon>
                    <polygon id="Fill-6" points="78.296 83.5 56.704 83.5 53.546 81.102 54.454 79.898 57.296 82 77.704 82 80.546 79.898 81.454 81.102"></polygon>
                </g>
                <g id="Page-1" transform="translate(318.000000, 0.000000)" fill="#000000">
                    <path d="M96.204,2 C97.032,2 97.704,2.672 97.704,3.5 L97.704,132.5 C97.704,133.328 97.032,134 96.204,134 L3.796,134 C2.968,134 2.296,133.328 2.296,132.5 L2.296,3.5 C2.296,2.672 2.968,2 3.796,2 L96.204,2 L96.204,2 Z M96.204,0.5 L3.796,0.5 C2.14,0.5 0.796,1.844 0.796,3.5 L0.796,132.5 C0.796,134.156 2.14,135.5 3.796,135.5 L96.21,135.5 C97.868,135.5 99.21,134.156 99.21,132.5 L99.21,3.5 C99.204,1.844 97.86,0.5 96.204,0.5 L96.204,0.5 Z" id="Fill-1"></path>
                    <path d="M48.5,126.438 L7.422,126.438 C7.008,126.438 6.672,126.102 6.672,125.688 L6.672,73.82 C6.672,73.406 7.008,73.07 7.422,73.07 L48.5,73.07 C48.914,73.07 49.25,73.406 49.25,73.82 L49.25,125.688 C49.25,126.102 48.914,126.438 48.5,126.438 L48.5,126.438 Z M8.172,124.938 L47.75,124.938 L47.75,74.57 L8.172,74.57 L8.172,124.938 Z" id="Fill-3"></path>
                    <path d="M44.148,81.844 L34.078,81.844 C33.664,81.844 33.328,81.508 33.328,81.094 L33.328,77.726 C33.328,77.312 33.664,76.976 34.078,76.976 L44.148,76.976 C44.562,76.976 44.898,77.312 44.898,77.726 L44.898,81.094 C44.898,81.508 44.562,81.844 44.148,81.844 L44.148,81.844 Z M34.828,80.344 L43.398,80.344 L43.398,78.476 L34.828,78.476 L34.828,80.344 Z" id="Fill-4"></path>
                    <path d="M31.398,81.844 L21.328,81.844 C20.914,81.844 20.578,81.508 20.578,81.094 L20.578,77.726 C20.578,77.312 20.914,76.976 21.328,76.976 L31.398,76.976 C31.812,76.976 32.148,77.312 32.148,77.726 L32.148,81.094 C32.148,81.508 31.812,81.844 31.398,81.844 L31.398,81.844 Z M22.078,80.344 L30.648,80.344 L30.648,78.476 L22.078,78.476 L22.078,80.344 Z" id="Fill-5"></path>
                    <path d="M44.148,88.204 L34.078,88.204 C33.664,88.204 33.328,87.868 33.328,87.454 L33.328,84.086 C33.328,83.672 33.664,83.336 34.078,83.336 L44.148,83.336 C44.562,83.336 44.898,83.672 44.898,84.086 L44.898,87.454 C44.898,87.868 44.562,88.204 44.148,88.204 L44.148,88.204 Z M34.828,86.704 L43.398,86.704 L43.398,84.836 L34.828,84.836 L34.828,86.704 Z" id="Fill-6"></path>
                    <path d="M31.398,88.204 L21.328,88.204 C20.914,88.204 20.578,87.868 20.578,87.454 L20.578,84.086 C20.578,83.672 20.914,83.336 21.328,83.336 L31.398,83.336 C31.812,83.336 32.148,83.672 32.148,84.086 L32.148,87.454 C32.148,87.868 31.812,88.204 31.398,88.204 L31.398,88.204 Z M22.078,86.704 L30.648,86.704 L30.648,84.836 L22.078,84.836 L22.078,86.704 Z" id="Fill-7"></path>
                    <path d="M44.148,94.204 L34.078,94.204 C33.664,94.204 33.328,93.868 33.328,93.454 L33.328,90.086 C33.328,89.672 33.664,89.336 34.078,89.336 L44.148,89.336 C44.562,89.336 44.898,89.672 44.898,90.086 L44.898,93.454 C44.898,93.868 44.562,94.204 44.148,94.204 L44.148,94.204 Z M34.828,92.704 L43.398,92.704 L43.398,90.836 L34.828,90.836 L34.828,92.704 Z" id="Fill-8"></path>
                    <path d="M31.398,94.204 L21.328,94.204 C20.914,94.204 20.578,93.868 20.578,93.454 L20.578,90.086 C20.578,89.672 20.914,89.336 21.328,89.336 L31.398,89.336 C31.812,89.336 32.148,89.672 32.148,90.086 L32.148,93.454 C32.148,93.868 31.812,94.204 31.398,94.204 L31.398,94.204 Z M22.078,92.704 L30.648,92.704 L30.648,90.836 L22.078,90.836 L22.078,92.704 Z" id="Fill-9"></path>
                    <path d="M14.61,82.71 C12.954,82.71 11.61,81.368 11.61,79.71 C11.61,78.054 12.954,76.71 14.61,76.71 C16.266,76.71 17.61,78.054 17.61,79.71 C17.61,81.368 16.266,82.71 14.61,82.71 L14.61,82.71 Z M14.61,78.21 C13.782,78.21 13.11,78.882 13.11,79.71 C13.11,80.54 13.782,81.21 14.61,81.21 C15.438,81.21 16.11,80.54 16.11,79.71 C16.11,78.882 15.438,78.21 14.61,78.21 L14.61,78.21 Z" id="Fill-10"></path>
                    <path d="M14.61,90.454 C12.954,90.454 11.61,89.11 11.61,87.454 C11.61,85.796 12.954,84.454 14.61,84.454 C16.266,84.454 17.61,85.796 17.61,87.454 C17.61,89.11 16.266,90.454 14.61,90.454 L14.61,90.454 Z M14.61,85.954 C13.782,85.954 13.11,86.624 13.11,87.454 C13.11,88.282 13.782,88.954 14.61,88.954 C15.438,88.954 16.11,88.282 16.11,87.454 C16.11,86.624 15.438,85.954 14.61,85.954 L14.61,85.954 Z" id="Fill-11"></path>
                    <path d="M44.148,104.75 L11.774,104.75 C11.36,104.75 11.024,104.414 11.024,104 L11.024,97.876 C11.024,97.46 11.36,97.124 11.774,97.124 L44.148,97.124 C44.562,97.124 44.898,97.46 44.898,97.876 L44.898,104 C44.898,104.414 44.562,104.75 44.148,104.75 L44.148,104.75 Z M12.524,103.25 L43.398,103.25 L43.398,98.624 L12.524,98.624 L12.524,103.25 Z" id="Fill-12"></path>
                    <path d="M40.922,102.75 L33.796,102.75 C33.516,102.75 33.258,102.594 33.132,102.344 C33,102.094 33.024,101.796 33.188,101.562 L34.688,99.438 C34.828,99.234 35.054,99.118 35.304,99.118 L39.43,99.118 C39.672,99.118 39.898,99.234 40.046,99.438 L41.546,101.562 C41.71,101.79 41.726,102.094 41.602,102.344 C41.46,102.594 41.204,102.75 40.922,102.75 L40.922,102.75 Z M35.242,101.25 L39.468,101.25 L39.032,100.624 L35.688,100.624 L35.242,101.25 Z" id="Fill-13"></path>
                    <path d="M44.148,114.032 L11.774,114.032 C11.36,114.032 11.024,113.696 11.024,113.282 L11.024,107.156 C11.024,106.742 11.36,106.406 11.774,106.406 L44.148,106.406 C44.562,106.406 44.898,106.742 44.898,107.156 L44.898,113.282 C44.898,113.696 44.562,114.032 44.148,114.032 L44.148,114.032 Z M12.524,112.532 L43.398,112.532 L43.398,107.906 L12.524,107.906 L12.524,112.532 Z" id="Fill-14"></path>
                    <path d="M44.148,123.312 L11.774,123.312 C11.36,123.312 11.024,122.976 11.024,122.562 L11.024,116.438 C11.024,116.024 11.36,115.688 11.774,115.688 L44.148,115.688 C44.562,115.688 44.898,116.024 44.898,116.438 L44.898,122.562 C44.898,122.976 44.562,123.312 44.148,123.312 L44.148,123.312 Z M12.524,121.812 L43.398,121.812 L43.398,117.188 L12.524,117.188 L12.524,121.812 Z" id="Fill-15"></path>
                    <path d="M40.922,112.032 L33.796,112.032 C33.516,112.032 33.258,111.876 33.132,111.624 C33,111.376 33.024,111.078 33.188,110.844 L34.688,108.718 C34.828,108.516 35.054,108.398 35.304,108.398 L39.43,108.398 C39.672,108.398 39.898,108.516 40.046,108.718 L41.546,110.844 C41.71,111.07 41.726,111.376 41.602,111.624 C41.46,111.876 41.204,112.032 40.922,112.032 L40.922,112.032 Z M35.242,110.532 L39.468,110.532 L39.032,109.906 L35.688,109.906 L35.242,110.532 Z" id="Fill-16"></path>
                    <path d="M30.422,112.032 L23.296,112.032 C23.016,112.032 22.758,111.876 22.632,111.624 C22.5,111.376 22.524,111.078 22.688,110.844 L24.188,108.718 C24.328,108.516 24.554,108.398 24.804,108.398 L28.93,108.398 C29.172,108.398 29.398,108.516 29.546,108.718 L31.046,110.844 C31.21,111.07 31.226,111.376 31.102,111.624 C30.96,111.876 30.704,112.032 30.422,112.032 L30.422,112.032 Z M24.742,110.532 L28.968,110.532 L28.532,109.906 L25.188,109.906 L24.742,110.532 Z" id="Fill-17"></path>
                    <path d="M31.922,102.75 L27.86,102.75 C27.446,102.75 27.11,102.414 27.11,102 L27.11,99.876 C27.11,99.46 27.446,99.124 27.86,99.124 L31.922,99.124 C32.336,99.124 32.672,99.46 32.672,99.876 L32.672,102 C32.672,102.414 32.336,102.75 31.922,102.75 L31.922,102.75 Z M28.61,101.25 L31.172,101.25 L31.172,100.624 L28.61,100.624 L28.61,101.25 Z" id="Fill-18"></path>
                    <path d="M16.11,100.938 C16.11,101.852 14.734,101.852 14.734,100.938 C14.734,100.024 16.11,100.024 16.11,100.938" id="Fill-19"></path>
                    <path d="M19.11,100.938 C19.11,101.852 17.734,101.852 17.734,100.938 C17.734,100.024 19.11,100.024 19.11,100.938" id="Fill-20"></path>
                    <path d="M22.11,100.938 C22.11,101.852 20.734,101.852 20.734,100.938 C20.734,100.024 22.11,100.024 22.11,100.938" id="Fill-21"></path>
                    <svg id="Fan" x="21" y="5" width="58" height="58" viewPort="21 5 58 58" version="1.1" xmlns="http://www.w3.org/2000/svg">
                        <path d="M29,57.82 C13.204,57.82 0.352,44.968 0.352,29.172 C0.352,13.376 13.204,0.524 29,0.524 C44.796,0.524 57.648,13.376 57.648,29.172 C57.648,44.968 44.796,57.82 29,57.82 L29,57.82 Z M29,2.024 C14.032,2.024 1.852,14.204 1.852,29.172 C1.852,44.14 14.032,56.32 29,56.32 C43.968,56.32 56.148,44.14 56.148,29.172 C56.148,14.204 43.968,2.024 29,2.024 L29,2.024 Z" id="Fill-2"><animateTransform xmlns="http://www.w3.org/2000/svg" attributeName="transform" type="rotate" from="0 29 29" to="360 29 29" dur="2s" repeatCount="indefinite"/></path>
                        <path d="M29,35.094 C25.734,35.094 23.078,32.438 23.078,29.172 C23.078,25.906 25.734,23.25 29,23.25 C32.266,23.25 34.922,25.906 34.922,29.172 C34.922,32.438 32.266,35.094 29,35.094 L29,35.094 Z M29,24.75 C26.562,24.75 24.578,26.734 24.578,29.172 C24.578,31.61 26.562,33.594 29,33.594 C31.438,33.594 33.422,31.61 33.422,29.172 C33.422,26.734 31.438,24.75 29,24.75 L29,24.75 Z" id="Fill-22"><animateTransform xmlns="http://www.w3.org/2000/svg" attributeName="transform" type="rotate" from="0 29 29" to="360 29 29" dur="2s" repeatCount="indefinite"/></path>
                        <path d="M30.922,24 L29.422,24 C29.422,14.93 37.532,7.554 47.5,7.554 L47.5,9.054 C38.36,9.054 30.922,15.758 30.922,24 L30.922,24 Z" id="Fill-23"><animateTransform xmlns="http://www.w3.org/2000/svg" attributeName="transform" type="rotate" from="0 29 29" to="360 29 29" dur="2s" repeatCount="indefinite"/></path>
                        <path d="M33.632,25.766 L32.132,25.766 C32.132,19.954 41.594,15.406 53.672,15.406 L53.672,16.906 C42.812,16.898 33.632,20.96 33.632,25.766 L33.632,25.766 Z" id="Fill-24"><animateTransform xmlns="http://www.w3.org/2000/svg" attributeName="transform" type="rotate" from="0 29 29" to="360 29 29" dur="2s" repeatCount="indefinite"/></path>
                        <path d="M49.992,46.516 C49.742,37.376 42.79,30.132 34.594,30.36 L34.554,28.86 C43.578,28.64 51.218,36.516 51.492,46.476 L49.992,46.516 Z" id="Fill-25"><animateTransform xmlns="http://www.w3.org/2000/svg" attributeName="transform" type="rotate" from="0 29 29" to="360 29 29" dur="2s" repeatCount="indefinite"/></path>
                        <path d="M42.312,52.898 C42.164,47.454 41.046,42.368 39.172,38.594 C37.438,35.102 35.196,33.118 33,33.118 L32.898,33.118 L32.86,31.618 L33.008,31.618 C35.828,31.618 38.492,33.852 40.516,37.93 C42.484,41.898 43.656,47.204 43.812,52.86 L42.312,52.898 Z" id="Fill-26"><animateTransform xmlns="http://www.w3.org/2000/svg" attributeName="transform" type="rotate" from="0 29 29" to="360 29 29" dur="2s" repeatCount="indefinite"/></path>
                        <path d="M18.282,55.344 L17.82,53.914 C22.046,52.546 25.54,49.774 27.648,46.11 C29.742,42.468 30.218,38.376 28.992,34.586 L30.422,34.124 C31.782,38.32 31.258,42.844 28.954,46.86 C26.648,50.844 22.868,53.86 18.282,55.344 L18.282,55.344 Z" id="Fill-27"><animateTransform xmlns="http://www.w3.org/2000/svg" attributeName="transform" type="rotate" from="0 29 29" to="360 29 29" dur="2s" repeatCount="indefinite"/></path>
                        <path d="M9.992,49.774 L9.532,48.344 C19.86,45 27.344,38.312 25.868,33.742 L27.296,33.282 C29.078,38.812 21.476,46.054 9.992,49.774 L9.992,49.774 Z" id="Fill-28"><animateTransform xmlns="http://www.w3.org/2000/svg" attributeName="transform" type="rotate" from="0 29 29" to="360 29 29" dur="2s" repeatCount="indefinite"/></path>
                        <path d="M14.156,35.914 C9.328,35.914 4.336,33.876 0.57,29.898 L1.664,28.868 C7.946,35.508 17.922,36.304 23.914,30.64 L24.946,31.734 C21.968,34.54 18.118,35.914 14.156,35.914 L14.156,35.914 Z" id="Fill-29"><animateTransform xmlns="http://www.w3.org/2000/svg" attributeName="transform" type="rotate" from="0 29 29" to="360 29 29" dur="2s" repeatCount="indefinite"/></path>
                        <path d="M19.86,30.14 C18.266,30.14 16.438,29.742 14.446,28.946 C10.336,27.304 5.922,24.124 2.032,20.016 L3.124,18.984 C6.868,22.946 11.086,25.984 15,27.554 C18.672,29.024 21.704,28.984 23.328,27.46 L24.36,28.554 C23.234,29.61 21.704,30.14 19.86,30.14 L19.86,30.14 Z" id="Fill-30"><animateTransform xmlns="http://www.w3.org/2000/svg" attributeName="transform" type="rotate" from="0 29 29" to="360 29 29" dur="2s" repeatCount="indefinite"/></path>
                        <path d="M24.274,27.046 C20.218,25.304 17.164,21.93 15.672,17.546 C14.188,13.196 14.414,8.36 16.32,3.938 L17.696,4.532 C15.938,8.618 15.718,13.062 17.086,17.062 C18.446,21.04 21.204,24.094 24.868,25.672 L24.274,27.046 Z" id="Fill-31"><animateTransform xmlns="http://www.w3.org/2000/svg" attributeName="transform" type="rotate" from="0 29 29" to="360 29 29" dur="2s" repeatCount="indefinite"/></path>
                        <path d="M26.968,25.258 C24.328,24.118 22.804,20.946 22.68,16.312 C22.562,11.882 23.734,6.578 25.976,1.382 L27.352,1.976 C25.196,6.984 24.07,12.062 24.18,16.274 C24.282,20.226 25.516,23 27.562,23.882 L26.968,25.258 Z" id="Fill-32"><animateTransform xmlns="http://www.w3.org/2000/svg" attributeName="transform" type="rotate" from="0 29 29" to="360 29 29" dur="2s" repeatCount="indefinite"/></path>
                        
                    </svg>
                    <path d="M91.882,126.438 L52.382,126.438 C51.968,126.438 51.632,126.102 51.632,125.688 L51.632,72.11 C51.632,71.89 51.726,71.68 51.906,71.532 C52.078,71.39 52.296,71.328 52.524,71.368 C54.75,71.774 57.242,71.938 60.148,71.82 C71.524,71.368 81.976,62.492 91.226,45.446 C91.39,45.14 91.734,44.992 92.07,45.078 C92.406,45.164 92.632,45.46 92.632,45.804 L92.632,125.688 C92.632,126.102 92.296,126.438 91.882,126.438 L91.882,126.438 Z M53.132,124.938 L91.132,124.938 L91.132,48.688 C81.954,64.594 71.554,72.876 60.204,73.328 C57.562,73.422 55.258,73.312 53.132,73 L53.132,124.938 Z" id="Fill-33"></path>
                    <path d="M91.882,47.618 L91.882,45.804 C91.672,46.196 91.446,46.578 91.234,46.968 L91.882,47.618 Z" id="Fill-34"></path>
                    <path d="M91.21,123.624 L91.882,124.296 L91.882,120.836 L91.21,121.508 L89.532,119.828 L91.21,118.148 L91.882,118.82 L91.882,115.36 L91.21,116.032 L89.532,114.352 L91.21,112.672 L91.876,113.336 L91.876,109.876 L91.21,110.54 L89.532,108.86 L91.21,107.18 L91.876,107.844 L91.876,104.382 L91.21,105.046 L89.532,103.368 L91.21,101.688 L91.876,102.352 L91.876,98.89 L91.21,99.554 L89.532,97.876 L91.21,96.196 L91.876,96.86 L91.876,93.398 L91.21,94.062 L89.532,92.382 L91.21,90.704 L91.876,91.368 L91.876,87.906 L91.21,88.57 L89.532,86.89 L91.21,85.21 L91.876,85.876 L91.876,82.414 L91.21,83.078 L89.532,81.398 L91.21,79.718 L91.876,80.382 L91.876,76.922 L91.21,77.586 L89.532,75.906 L91.21,74.226 L91.876,74.89 L91.876,71.43 L91.21,72.094 L89.532,70.414 L91.21,68.734 L91.882,69.406 L91.882,66.062 L91.21,66.734 L89.532,65.054 L91.21,63.376 L91.882,64.046 L91.882,60.586 L91.21,61.258 L89.532,59.578 L91.204,57.898 L91.876,58.57 L91.876,55.11 L91.204,55.782 L89.524,54.102 L91.204,52.422 L91.876,53.094 L91.876,49.632 L91.204,50.304 L90,49.102 C89.734,49.546 89.468,49.984 89.204,50.43 L90.14,51.368 L88.46,53.046 L87.906,52.492 C87.624,52.922 87.352,53.36 87.07,53.774 L87.406,54.11 L85.726,55.79 L85.696,55.75 C82.04,60.82 77.96,65.102 73.438,68.078 L72.04,69.476 L71.71,69.156 C71.25,69.414 70.79,69.648 70.32,69.882 L70.976,70.54 L69.296,72.218 L67.992,70.914 C66.672,71.422 65.32,71.82 63.938,72.102 L63.82,72.218 L63.742,72.14 C63.132,72.258 62.524,72.352 61.906,72.422 L62.758,73.274 L61.078,74.954 L59.398,73.274 L60.094,72.578 C58.812,72.624 57.656,72.61 56.562,72.562 L57.274,73.274 L55.594,74.954 L53.914,73.274 L54.758,72.43 C54.086,72.368 53.46,72.282 52.876,72.188 L52.86,72.204 L52.836,72.18 C52.688,72.156 52.516,72.132 52.368,72.11 L52.368,74.82 L52.86,74.328 L54.54,76.008 L52.86,77.688 L52.368,77.196 L52.368,80.296 L52.86,79.804 L54.54,81.484 L52.86,83.164 L52.368,82.672 L52.368,85.774 L52.86,85.282 L54.54,86.96 L52.86,88.64 L52.368,88.148 L52.368,91.25 L52.86,90.758 L54.54,92.438 L52.86,94.118 L52.368,93.624 L52.368,96.726 L52.86,96.234 L54.54,97.914 L52.86,99.594 L52.368,99.102 L52.368,102.204 L52.86,101.71 L54.54,103.39 L52.86,105.07 L52.368,104.578 L52.368,107.68 L52.86,107.188 L54.54,108.868 L52.86,110.546 L52.368,110.054 L52.368,113.156 L52.86,112.664 L54.54,114.344 L52.86,116.024 L52.368,115.532 L52.368,118.632 L52.86,118.14 L54.54,119.82 L52.86,121.5 L52.368,121.008 L52.368,124.11 L52.86,123.618 L54.54,125.296 L54.156,125.68 L57.04,125.68 L56.656,125.296 L58.336,123.618 L60.016,125.296 L59.632,125.68 L62.516,125.68 L62.132,125.296 L63.812,123.618 L65.492,125.296 L65.11,125.68 L67.992,125.68 L67.61,125.296 L69.29,123.618 L70.968,125.296 L70.586,125.68 L73.468,125.68 L73.086,125.296 L74.766,123.618 L76.446,125.296 L76.062,125.68 L78.946,125.68 L78.562,125.296 L80.242,123.618 L81.922,125.296 L81.54,125.68 L84.43,125.68 L84.046,125.296 L85.726,123.618 L87.406,125.296 L87.024,125.68 L89.914,125.68 L89.532,125.296 L91.21,123.624 Z M90.156,117.086 L88.476,118.766 L86.796,117.086 L88.476,115.406 L90.156,117.086 Z M68.242,100.656 L66.562,102.336 L64.882,100.656 L66.562,98.976 L68.242,100.656 Z M64.89,95.18 L66.57,93.5 L68.25,95.18 L66.57,96.86 L64.89,95.18 Z M67.624,97.914 L69.304,96.234 L70.984,97.914 L69.304,99.594 L67.624,97.914 Z M75.844,89.704 L77.524,88.024 L79.204,89.704 L77.524,91.382 L75.844,89.704 Z M79.204,95.18 L77.524,96.86 L75.844,95.18 L77.524,93.5 L79.204,95.18 Z M76.46,92.438 L74.782,94.118 L73.102,92.438 L74.782,90.758 L76.46,92.438 Z M73.718,95.18 L72.04,96.86 L70.36,95.18 L72.04,93.5 L73.718,95.18 Z M72.046,98.976 L73.726,100.656 L72.046,102.336 L70.368,100.656 L72.046,98.976 Z M73.102,97.914 L74.782,96.234 L76.46,97.914 L74.782,99.594 L73.102,97.914 Z M77.524,98.976 L79.204,100.656 L77.524,102.336 L75.844,100.656 L77.524,98.976 Z M78.586,97.914 L80.266,96.234 L81.946,97.914 L80.266,99.594 L78.586,97.914 Z M78.586,92.438 L80.266,90.758 L81.946,92.438 L80.266,94.118 L78.586,92.438 Z M78.586,86.96 L80.266,85.282 L81.946,86.96 L80.266,88.64 L78.586,86.96 Z M78.586,81.484 L80.266,79.804 L81.946,81.484 L80.266,83.164 L78.586,81.484 Z M79.204,84.226 L77.524,85.906 L75.844,84.226 L77.524,82.546 L79.204,84.226 Z M76.46,86.96 L74.782,88.64 L73.102,86.96 L74.782,85.282 L76.46,86.96 Z M73.718,89.704 L72.04,91.382 L70.36,89.704 L72.04,88.024 L73.718,89.704 Z M70.984,92.446 L69.304,94.124 L67.624,92.446 L69.304,90.766 L70.984,92.446 Z M66.57,91.382 L64.89,89.704 L66.57,88.024 L68.25,89.704 L66.57,91.382 Z M65.508,92.438 L63.828,94.118 L62.148,92.438 L63.828,90.758 L65.508,92.438 Z M65.508,97.914 L63.828,99.594 L62.148,97.914 L63.828,96.234 L65.508,97.914 Z M65.508,103.398 L63.828,105.078 L62.148,103.398 L63.828,101.718 L65.508,103.398 Z M66.57,104.454 L68.25,106.132 L66.57,107.812 L64.89,106.132 L66.57,104.454 Z M67.624,103.398 L69.304,101.718 L70.984,103.398 L69.304,105.078 L67.624,103.398 Z M72.046,104.46 L73.726,106.14 L72.046,107.82 L70.368,106.14 L72.046,104.46 Z M73.11,103.398 L74.79,101.718 L76.468,103.398 L74.79,105.078 L73.11,103.398 Z M77.524,104.454 L79.204,106.132 L77.524,107.812 L75.844,106.132 L77.524,104.454 Z M78.586,103.398 L80.266,101.718 L81.946,103.398 L80.266,105.078 L78.586,103.398 Z M83,104.46 L84.68,106.14 L83,107.812 L81.32,106.132 L83,104.46 Z M81.32,100.656 L83,98.976 L84.68,100.656 L83,102.336 L81.32,100.656 Z M81.32,95.18 L83,93.5 L84.68,95.18 L83,96.86 L81.32,95.18 Z M81.32,89.704 L83,88.024 L84.68,89.704 L83,91.382 L81.32,89.704 Z M81.32,84.226 L83,82.546 L84.68,84.226 L83,85.906 L81.32,84.226 Z M81.32,78.75 L83,77.07 L84.68,78.75 L83,80.43 L81.32,78.75 Z M81.32,73.274 L83,71.594 L84.68,73.274 L83,74.954 L81.32,73.274 Z M81.938,76.008 L80.258,77.688 L78.578,76.008 L80.258,74.328 L81.938,76.008 Z M79.204,78.75 L77.524,80.43 L75.844,78.75 L77.524,77.07 L79.204,78.75 Z M76.46,81.484 L74.782,83.164 L73.102,81.484 L74.782,79.804 L76.46,81.484 Z M73.718,84.226 L72.04,85.906 L70.36,84.226 L72.04,82.546 L73.718,84.226 Z M70.984,86.96 L69.304,88.64 L67.624,86.96 L69.304,85.282 L70.984,86.96 Z M66.57,85.906 L64.89,84.226 L66.57,82.546 L68.25,84.226 L66.57,85.906 Z M65.508,86.96 L63.828,88.64 L62.148,86.96 L63.828,85.282 L65.508,86.96 Z M62.766,89.704 L61.086,91.382 L59.406,89.704 L61.086,88.024 L62.766,89.704 Z M62.766,95.18 L61.086,96.86 L59.406,95.18 L61.086,93.5 L62.766,95.18 Z M62.766,100.656 L61.086,102.336 L59.406,100.656 L61.086,98.976 L62.766,100.656 Z M62.766,106.132 L61.086,107.812 L59.406,106.132 L61.086,104.454 L62.766,106.132 Z M62.766,111.61 L61.086,113.29 L59.406,111.61 L61.086,109.93 L62.766,111.61 Z M62.148,108.876 L63.828,107.196 L65.508,108.876 L63.828,110.554 L62.148,108.876 Z M66.57,109.938 L68.25,111.618 L66.57,113.296 L64.89,111.618 L66.57,109.938 Z M67.624,108.876 L69.304,107.196 L70.984,108.876 L69.304,110.554 L67.624,108.876 Z M72.046,109.93 L73.726,111.61 L72.046,113.29 L70.368,111.61 L72.046,109.93 Z M73.102,108.876 L74.782,107.196 L76.46,108.876 L74.782,110.554 L73.102,108.876 Z M77.524,109.93 L79.204,111.61 L77.524,113.29 L75.844,111.61 L77.524,109.93 Z M78.586,108.876 L80.266,107.196 L81.946,108.876 L80.266,110.554 L78.586,108.876 Z M83,109.938 L84.68,111.618 L83,113.29 L81.32,111.61 L83,109.938 Z M84.062,108.876 L85.742,107.196 L87.422,108.876 L85.742,110.554 L84.062,108.876 Z M84.062,103.398 L85.742,101.718 L87.422,103.398 L85.742,105.078 L84.062,103.398 Z M84.062,97.914 L85.742,96.234 L87.422,97.914 L85.742,99.594 L84.062,97.914 Z M84.062,92.446 L85.742,90.766 L87.422,92.446 L85.742,94.124 L84.062,92.446 Z M84.062,86.96 L85.742,85.282 L87.422,86.96 L85.742,88.64 L84.062,86.96 Z M84.062,81.484 L85.742,79.804 L87.422,81.484 L85.742,83.164 L84.062,81.484 Z M84.062,76.008 L85.742,74.328 L87.422,76.008 L85.742,77.688 L84.062,76.008 Z M84.062,70.532 L85.734,68.852 L87.414,70.532 L85.734,72.21 L84.062,70.532 Z M84.062,65.054 L85.742,63.376 L87.422,65.054 L85.742,66.734 L84.062,65.054 Z M84.672,67.796 L83,69.468 L81.32,67.79 L83,66.11 L84.672,67.796 Z M81.938,70.532 L80.258,72.21 L78.578,70.532 L80.258,68.852 L81.938,70.532 Z M79.204,73.274 L77.524,74.954 L75.844,73.274 L77.524,71.594 L79.204,73.274 Z M76.46,76.008 L74.782,77.688 L73.102,76.008 L74.782,74.328 L76.46,76.008 Z M73.718,78.75 L72.04,80.43 L70.36,78.75 L72.04,77.07 L73.718,78.75 Z M70.984,81.484 L69.304,83.164 L67.624,81.484 L69.304,79.804 L70.984,81.484 Z M66.57,80.43 L64.89,78.75 L66.57,77.07 L68.25,78.75 L66.57,80.43 Z M65.508,81.484 L63.828,83.164 L62.148,81.484 L63.828,79.804 L65.508,81.484 Z M62.766,84.226 L61.086,85.906 L59.406,84.226 L61.086,82.546 L62.766,84.226 Z M58.352,83.164 L56.672,81.484 L58.352,79.804 L60.032,81.484 L58.352,83.164 Z M60.032,86.96 L58.352,88.64 L56.672,86.96 L58.352,85.282 L60.032,86.96 Z M60.032,92.438 L58.352,94.118 L56.672,92.438 L58.352,90.758 L60.032,92.438 Z M60.032,97.914 L58.352,99.594 L56.672,97.914 L58.352,96.234 L60.032,97.914 Z M60.032,103.398 L58.352,105.078 L56.672,103.398 L58.352,101.718 L60.032,103.398 Z M60.032,108.876 L58.352,110.554 L56.672,108.876 L58.352,107.196 L60.032,108.876 Z M60.032,114.352 L58.352,116.032 L56.672,114.352 L58.352,112.672 L60.032,114.352 Z M61.094,115.414 L62.774,117.094 L61.094,118.774 L59.414,117.094 L61.094,115.414 Z M62.148,114.352 L63.828,112.672 L65.508,114.352 L63.828,116.032 L62.148,114.352 Z M66.57,115.414 L68.25,117.094 L66.57,118.774 L64.89,117.094 L66.57,115.414 Z M67.624,114.352 L69.304,112.672 L70.984,114.352 L69.304,116.032 L67.624,114.352 Z M72.046,115.414 L73.726,117.094 L72.046,118.774 L70.368,117.094 L72.046,115.414 Z M73.102,114.352 L74.782,112.672 L76.46,114.352 L74.782,116.032 L73.102,114.352 Z M77.524,115.414 L79.204,117.094 L77.524,118.774 L75.844,117.094 L77.524,115.414 Z M78.586,114.352 L80.266,112.672 L81.946,114.352 L80.266,116.032 L78.586,114.352 Z M83,115.414 L84.68,117.094 L83,118.774 L81.32,117.094 L83,115.414 Z M84.062,114.352 L85.742,112.672 L87.422,114.352 L85.742,116.032 L84.062,114.352 Z M90.156,111.61 L88.476,113.29 L86.796,111.61 L88.476,109.93 L90.156,111.61 Z M90.156,106.132 L88.476,107.812 L86.796,106.132 L88.476,104.454 L90.156,106.132 Z M90.156,100.656 L88.476,102.336 L86.796,100.656 L88.476,98.976 L90.156,100.656 Z M90.156,95.18 L88.476,96.86 L86.796,95.18 L88.476,93.5 L90.156,95.18 Z M90.156,89.704 L88.476,91.382 L86.796,89.704 L88.476,88.024 L90.156,89.704 Z M90.156,84.226 L88.476,85.906 L86.796,84.226 L88.476,82.546 L90.156,84.226 Z M90.156,78.75 L88.476,80.43 L86.796,78.75 L88.476,77.07 L90.156,78.75 Z M90.156,73.274 L88.476,74.954 L86.796,73.274 L88.476,71.594 L90.156,73.274 Z M90.156,67.796 L88.476,69.476 L86.796,67.796 L88.476,66.118 L90.156,67.796 Z M90.156,62.32 L88.476,63.992 L86.796,62.312 L88.476,60.632 L90.156,62.32 Z M88.476,55.164 L90.156,56.844 L88.484,58.524 L86.804,56.844 L88.476,55.164 Z M85.734,57.898 L87.414,59.578 L85.734,61.258 L84.054,59.578 L85.734,57.898 Z M83,60.64 L84.68,62.32 L83,64 L81.32,62.32 L83,60.64 Z M80.258,63.376 L81.938,65.054 L80.258,66.734 L78.578,65.054 L80.258,63.376 Z M77.524,66.118 L79.204,67.796 L77.524,69.476 L75.844,67.796 L77.524,66.118 Z M74.782,68.852 L76.46,70.532 L74.782,72.21 L73.102,70.532 L74.782,68.852 Z M72.046,71.594 L73.726,73.274 L72.046,74.954 L70.368,73.274 L72.046,71.594 Z M70.984,76.008 L69.304,77.688 L67.624,76.008 L69.304,74.328 L70.984,76.008 Z M66.57,71.594 L68.25,73.274 L66.57,74.954 L64.89,73.274 L66.57,71.594 Z M63.828,74.328 L65.508,76.008 L63.828,77.688 L62.148,76.008 L63.828,74.328 Z M62.766,78.75 L61.086,80.43 L59.406,78.75 L61.086,77.07 L62.766,78.75 Z M58.352,74.328 L60.032,76.008 L58.352,77.688 L56.672,76.008 L58.352,74.328 Z M53.938,78.75 L55.618,77.07 L57.296,78.75 L55.618,80.43 L53.938,78.75 Z M53.938,84.226 L55.618,82.546 L57.296,84.226 L55.618,85.906 L53.938,84.226 Z M53.938,89.704 L55.618,88.024 L57.296,89.704 L55.618,91.382 L53.938,89.704 Z M53.938,95.18 L55.618,93.5 L57.296,95.18 L55.618,96.86 L53.938,95.18 Z M53.938,100.656 L55.618,98.976 L57.296,100.656 L55.618,102.336 L53.938,100.656 Z M53.938,106.132 L55.618,104.454 L57.296,106.132 L55.618,107.812 L53.938,106.132 Z M53.938,111.61 L55.618,109.93 L57.296,111.61 L55.618,113.29 L53.938,111.61 Z M53.938,117.086 L55.618,115.406 L57.296,117.086 L55.618,118.766 L53.938,117.086 Z M55.61,124.242 L53.93,122.562 L55.61,120.882 L57.29,122.562 L55.61,124.242 Z M56.672,119.828 L58.352,118.148 L60.032,119.828 L58.352,121.508 L56.672,119.828 Z M61.094,124.242 L59.414,122.562 L61.094,120.882 L62.774,122.562 L61.094,124.242 Z M62.148,119.828 L63.828,118.148 L65.508,119.828 L63.828,121.508 L62.148,119.828 Z M66.57,124.242 L64.89,122.562 L66.57,120.882 L68.25,122.562 L66.57,124.242 Z M67.624,119.828 L69.304,118.148 L70.984,119.828 L69.304,121.508 L67.624,119.828 Z M72.046,124.242 L70.368,122.562 L72.046,120.882 L73.726,122.562 L72.046,124.242 Z M73.102,119.828 L74.782,118.148 L76.46,119.828 L74.782,121.508 L73.102,119.828 Z M77.524,124.242 L75.844,122.562 L77.524,120.882 L79.204,122.562 L77.524,124.242 Z M78.586,119.828 L80.266,118.148 L81.946,119.828 L80.266,121.508 L78.586,119.828 Z M83,124.242 L81.32,122.562 L83,120.882 L84.68,122.562 L83,124.242 Z M84.062,119.828 L85.742,118.148 L87.422,119.828 L85.742,121.508 L84.062,119.828 Z M86.796,122.562 L88.476,120.882 L90.156,122.562 L88.476,124.242 L86.796,122.562 Z" id="Fill-35"></path>
                </g>
            </g>
        </g>
    </g>
</svg>