<?xml version="1.0" encoding="UTF-8"?>
<svg width="737px" height="260px" viewBox="0 0 737 260" version="1.1" xmlns="http://www.w3.org/2000/svg" xmlns:xlink="http://www.w3.org/1999/xlink">
    <!-- Generator: Sketch 41.2 (35397) - http://www.bohemiancoding.com/sketch -->
    <title>iPhoneLogo2</title>
    <desc>Created with Sketch.</desc>
    <defs>
        <rect id="path-1" x="0" y="-2.84217094e-14" width="133" height="260" rx="12"></rect>
        <mask id="mask-2" maskContentUnits="userSpaceOnUse" maskUnits="objectBoundingBox" x="0" y="0" width="133" height="260" fill="white">
            <use xlink:href="#path-1"></use>
        </mask>
        <rect id="path-3" x="0" y="0" width="115" height="208" rx="5"></rect>
        <mask id="mask-4" maskContentUnits="userSpaceOnUse" maskUnits="objectBoundingBox" x="0" y="0" width="115" height="208" fill="white">
            <use xlink:href="#path-3"></use>
        </mask>
    </defs>
    <g id="WithSidebar" stroke="none" stroke-width="1" fill="none" fill-rule="evenodd">
        <g id="iPhoneLogo-Copy-4" transform="translate(-60.000000, -60.000000)">
            <g id="iPhoneLogo2" transform="translate(60.000000, 60.000000)">
                <path d="M216.583984,171 L216.583984,133.280273 L230.719727,117.899414 L271.369141,171 L284.333008,171 L237.677734,110.941406 L280.011719,65.3115234 L267.487305,65.3115234 L217.462891,119.950195 L216.583984,119.950195 L216.583984,65.3115234 L206.549805,65.3115234 L206.549805,171 L216.583984,171 Z M340.802734,63.1142578 C311.359375,63.1142578 292.902344,84.28125 292.902344,118.119141 C292.902344,151.883789 310.993164,173.197266 340.802734,173.197266 C370.539062,173.197266 388.556641,151.810547 388.556641,118.119141 C388.556641,84.3544922 370.46582,63.1142578 340.802734,63.1142578 Z M340.802734,72.4160156 C363.947266,72.4160156 378.302734,90.140625 378.302734,118.119141 C378.302734,145.951172 364.020508,163.895508 340.802734,163.895508 C317.438477,163.895508 303.15625,145.951172 303.15625,118.119141 C303.15625,90.140625 317.731445,72.4160156 340.802734,72.4160156 Z M464.801758,82.7431641 L465.53418,82.7431641 L491.461914,171 L500.763672,171 L529.84082,65.3115234 L519.44043,65.3115234 L496.222656,155.399414 L495.563477,155.399414 L470.148438,65.3115234 L460.1875,65.3115234 L434.772461,155.399414 L434.113281,155.399414 L410.895508,65.3115234 L400.495117,65.3115234 L429.572266,171 L438.874023,171 L464.801758,82.7431641 Z M560.382812,171 L560.382812,123.026367 L608.795898,123.026367 L608.795898,114.09082 L560.382812,114.09082 L560.382812,74.3935547 L613.043945,74.3935547 L613.043945,65.3115234 L550.348633,65.3115234 L550.348633,171 L560.382812,171 Z M644.391602,171 L644.391602,84.7939453 L645.050781,84.7939453 L681.525391,170.487305 L690.241211,170.487305 L726.71582,84.7939453 L727.448242,84.7939453 L727.448242,171 L736.823242,171 L736.823242,65.3115234 L725.250977,65.3115234 L686.359375,157.303711 L685.480469,157.303711 L646.442383,65.3115234 L634.943359,65.3115234 L634.943359,171 L644.391602,171 Z" id="KOWFM" fill="#000000"></path>
                <g id="iPhone-Copy-2">
                    <use id="Rectangle-2" stroke="#000000" mask="url(#mask-2)" stroke-width="6" xlink:href="#path-1"></use>
                    <g id="Details" transform="translate(42.000000, 11.000000)" fill="#000000">
                        <path d="M24,241.333333 L24,241.333333 C28.0500882,241.333333 31.3333333,238.050088 31.3333333,234 C31.3333333,229.949912 28.0500882,226.666667 24,226.666667 C19.9499118,226.666667 16.6666667,229.949912 16.6666667,234 C16.6666667,238.050088 19.9499118,241.333333 24,241.333333 L24,241.333333 Z M24,244 L24,244 C18.4771525,244 14,239.522847 14,234 C14,228.477153 18.4771525,224 24,224 C29.5228475,224 34,228.477153 34,234 C34,239.522847 29.5228475,244 24,244 L24,244 Z" id="Oval-5"></path>
                        <path d="M4,8.06666565 L4,8.06666565 C6.209139,8.06666565 8,6.27580465 8,4.06666565 C8,1.85752665 6.209139,0.0666656494 4,0.0666656494 C1.790861,0.0666656494 0,1.85752665 0,4.06666565 C0,6.27580465 1.790861,8.06666565 4,8.06666565 L4,8.06666565 Z" id="Oval-5-Copy"></path>
                        <rect id="Rectangle" x="10" y="2" width="29" height="4" rx="2"></rect>
                    </g>
                    <g id="Screen" transform="translate(9.000000, 26.000000)">
                        <rect id="Rectangle-281" fill="#000000" x="31" y="80" width="8" height="12" rx="4"></rect>
                        <rect id="Rectangle-281-Copy" fill="#000000" x="75" y="80" width="8" height="12" rx="4"></rect>
                        <path d="M27.140903,110.736586 C28.06118,113.061661 30.1152893,116.417143 33.6045124,119.756477 C39.3937286,125.297003 47.1857691,128.622604 57.1577607,128.622604 C67.9597439,128.622604 75.9121865,125.289225 81.3505396,119.707231 C84.6538837,116.316637 86.3743498,112.901587 87.0141263,110.519256 C87.3006085,109.452484 86.6680589,108.355455 85.6012873,108.068973 C84.5345156,107.782491 83.4374867,108.415041 83.1510045,109.481812 C83.0452244,109.875705 82.756303,110.657911 82.2323702,111.697895 C81.3390379,113.47112 80.1070081,115.25156 78.4854897,116.915907 C73.8023828,121.722707 66.8840979,124.622604 57.1577607,124.622604 C48.248893,124.622604 41.4360751,121.71493 36.3701887,116.866661 C34.6016818,115.174125 33.177899,113.360975 32.07144,111.553524 C31.6880048,110.927165 31.3728485,110.349525 31.1223971,109.836863 C30.979151,109.543644 30.8929841,109.347399 30.8601653,109.264483 C30.4536552,108.237437 29.2915284,107.734393 28.2644825,108.140903 C27.2374366,108.547413 26.7343929,109.70954 27.140903,110.736586 L27.140903,110.736586 Z" id="Line" fill="#000000"></path>
                        <use id="Rectangle-2" stroke="#000000" mask="url(#mask-4)" stroke-width="6" xlink:href="#path-3"></use>
                    </g>
                </g>
            </g>
        </g>
    </g>
</svg>