<?xml version="1.0" encoding="UTF-8"?>
<svg width="881px" height="260px" viewBox="0 0 881 260" version="1.1" xmlns="http://www.w3.org/2000/svg" xmlns:xlink="http://www.w3.org/1999/xlink">
    <!-- Generator: Sketch 41.2 (35397) - http://www.bohemiancoding.com/sketch -->
    <title>iPhoneLogo</title>
    <desc>Created with Sketch.</desc>
    <defs>
        <rect id="path-1" x="0" y="-2.84217094e-14" width="133" height="260" rx="12"></rect>
        <mask id="mask-2" maskContentUnits="userSpaceOnUse" maskUnits="objectBoundingBox" x="0" y="0" width="133" height="260" fill="white">
            <use xlink:href="#path-1"></use>
        </mask>
        <rect id="path-3" x="9" y="26" width="115" height="208" rx="5"></rect>
        <mask id="mask-4" maskContentUnits="userSpaceOnUse" maskUnits="objectBoundingBox" x="0" y="0" width="115" height="208" fill="white">
            <use xlink:href="#path-3"></use>
        </mask>
    </defs>
    <g id="WithSidebar" stroke="none" stroke-width="1" fill="none" fill-rule="evenodd">
        <g id="iPhoneLogo-Copy" transform="translate(-60.000000, -60.000000)">
            <g id="iPhoneLogo" transform="translate(60.000000, 60.000000)">
                <path d="M186.379148,201.00026 L186.379148,150.706381 L205.227145,130.198198 L259.427345,201.00026 L276.712814,201.00026 L214.504657,120.920686 L270.950991,60.079742 L254.25147,60.079742 L187.551044,132.932622 L186.379148,132.932622 L186.379148,60.079742 L173,60.079742 L173,201.00026 L186.379148,201.00026 Z M352.007144,57.1500015 C312.748622,57.1500015 288.138801,85.3731683 288.138801,130.491172 C288.138801,175.511518 312.260332,203.93 352.007144,203.93 C391.656299,203.93 415.680171,175.413859 415.680171,130.491172 C415.680171,85.4708263 391.558641,57.1500015 352.007144,57.1500015 Z M352.007144,69.5525696 C382.867077,69.5525696 402.008049,93.1858096 402.008049,130.491172 C402.008049,167.601218 382.964735,191.527432 352.007144,191.527432 C320.854237,191.527432 301.810924,167.601218 301.810924,130.491172 C301.810924,93.1858096 321.244869,69.5525696 352.007144,69.5525696 Z M517.342166,83.3223499 L518.318746,83.3223499 L552.889684,201.00026 L565.292252,201.00026 L604.062485,60.079742 L590.195046,60.079742 L559.237455,180.199102 L558.358533,180.199102 L524.471201,60.079742 L511.189711,60.079742 L477.302379,180.199102 L476.423457,180.199102 L445.465866,60.079742 L431.598428,60.079742 L470.36866,201.00026 L482.771228,201.00026 L517.342166,83.3223499 Z M644.785878,201.00026 L644.785878,137.034259 L709.337827,137.034259 L709.337827,125.119981 L644.785878,125.119981 L644.785878,72.1893361 L715.001992,72.1893361 L715.001992,60.079742 L631.406729,60.079742 L631.406729,201.00026 L644.785878,201.00026 Z M756.799623,201.00026 L756.799623,86.0567744 L757.678545,86.0567744 L806.312237,200.316654 L817.933541,200.316654 L866.567233,86.0567744 L867.543813,86.0567744 L867.543813,201.00026 L880.044039,201.00026 L880.044039,60.079742 L864.614073,60.079742 L812.757666,182.738211 L811.58577,182.738211 L759.534047,60.079742 L744.201738,60.079742 L744.201738,201.00026 L756.799623,201.00026 Z" id="KOWFM-Copy-3" fill="#000000"></path>
                <use id="Rectangle-2" stroke="#000000" mask="url(#mask-2)" stroke-width="6" xlink:href="#path-1"></use>
                <path d="M66,252.333333 L66,252.333333 C70.0500882,252.333333 73.3333333,249.050088 73.3333333,245 C73.3333333,240.949912 70.0500882,237.666667 66,237.666667 C61.9499118,237.666667 58.6666667,240.949912 58.6666667,245 C58.6666667,249.050088 61.9499118,252.333333 66,252.333333 L66,252.333333 Z M66,255 L66,255 C60.4771525,255 56,250.522847 56,245 C56,239.477153 60.4771525,235 66,235 C71.5228475,235 76,239.477153 76,245 C76,250.522847 71.5228475,255 66,255 L66,255 Z" id="Oval-5" fill="#000000"></path>
                <path d="M46,18.0666656 L46,18.0666656 C48.209139,18.0666656 50,16.2758046 50,14.0666656 C50,11.8575267 48.209139,10.0666656 46,10.0666656 C43.790861,10.0666656 42,11.8575267 42,14.0666656 C42,16.2758046 43.790861,18.0666656 46,18.0666656 L46,18.0666656 Z" id="Oval-5-Copy" fill="#000000"></path>
                <rect id="Rectangle" fill="#000000" x="52" y="12" width="29" height="4" rx="2"></rect>
                <rect id="Rectangle-281" fill="#000000" x="40" y="109" width="8" height="12" rx="4"></rect>
                <rect id="Rectangle-281-Copy" fill="#000000" x="84" y="106" width="8" height="12" rx="4"></rect>
                <path d="M36.140903,136.736586 C37.06118,139.061661 39.1152893,142.417143 42.6045124,145.756477 C48.3937286,151.297003 56.1857691,154.622604 66.1577607,154.622604 C76.9597439,154.622604 84.9121865,151.289225 90.3505396,145.707231 C93.6538837,142.316637 95.3743498,138.901587 96.0141263,136.519256 C96.3006085,135.452484 95.6680589,134.355455 94.6012873,134.068973 C93.5345156,133.782491 92.4374867,134.415041 92.1510045,135.481812 C92.0452244,135.875705 91.756303,136.657911 91.2323702,137.697895 C90.3390379,139.47112 89.1070081,141.25156 87.4854897,142.915907 C82.8023828,147.722707 75.8840979,150.622604 66.1577607,150.622604 C57.248893,150.622604 50.4360751,147.71493 45.3701887,142.866661 C43.6016818,141.174125 42.177899,139.360975 41.07144,137.553524 C40.6880048,136.927165 40.3728485,136.349525 40.1223971,135.836863 C39.979151,135.543644 39.8929841,135.347399 39.8601653,135.264483 C39.4536552,134.237437 38.2915284,133.734393 37.2644825,134.140903 C36.2374366,134.547413 35.7343929,135.70954 36.140903,136.736586 L36.140903,136.736586 Z" id="Line" fill="#000000"></path>
                <use id="Rectangle-2" stroke="#000000" mask="url(#mask-4)" stroke-width="6" xlink:href="#path-3"></use>
            </g>
        </g>
    </g>
</svg>