<?xml version="1.0" encoding="UTF-8" standalone="no"?>
<svg width="102px" height="65px" viewBox="0 0 102 65" version="1.1" xmlns="http://www.w3.org/2000/svg" xmlns:xlink="http://www.w3.org/1999/xlink">
    <!-- Generator: Sketch 40.1 (33804) - http://www.bohemiancoding.com/sketch -->
    <title>Logo</title>
    <desc>Created with Sketch.</desc>
    <defs></defs>
    <g id="Page-1" stroke="none" stroke-width="1" fill="none" fill-rule="evenodd">
        <g id="Sticker" transform="translate(-10.000000, -11.000000)" fill="#000000">
            <g id="Group" transform="translate(4.000000, 5.000000)">
                <g id="Logo" transform="translate(6.000000, 6.000000)">
                    <path d="M48.7290039,26 L48.7290039,19.0390625 L51.4580078,16.0991211 L59.565918,26 L60.8974609,26 L52.1962891,15.3608398 L60.0273438,6.97607422 L58.6958008,6.97607422 L48.8081055,17.6020508 L48.7290039,17.6020508 L48.7290039,6.97607422 L47.6875,6.97607422 L47.6875,26 L48.7290039,26 Z M69.3349609,6.69921875 C64.1538086,6.69921875 60.8579102,10.4960938 60.8579102,16.4814453 C60.8579102,22.4931641 64.140625,26.2768555 69.3349609,26.2768555 C74.5292969,26.2768555 77.8120117,22.4931641 77.8120117,16.4814453 C77.8120117,10.4960938 74.5161133,6.69921875 69.3349609,6.69921875 L69.3349609,6.69921875 Z M69.3349609,7.67480469 C73.8569336,7.67480469 76.7441406,11.1025391 76.7441406,16.4814453 C76.7441406,21.8735352 73.8569336,25.3012695 69.3349609,25.3012695 C64.8129883,25.3012695 61.9257812,21.8735352 61.9257812,16.4814453 C61.9257812,11.1025391 64.7998047,7.67480469 69.3349609,7.67480469 L69.3349609,7.67480469 Z M89.8881836,8.92724609 L89.9541016,8.92724609 L95.0166016,26 L95.9394531,26 L101.252441,6.97607422 L100.158203,6.97607422 L95.4780273,24.1938477 L95.4121094,24.1938477 L90.4023438,6.97607422 L89.4267578,6.97607422 L84.4301758,24.1938477 L84.3642578,24.1938477 L79.6708984,6.97607422 L78.5898438,6.97607422 L83.902832,26 L84.8256836,26 L89.8881836,8.92724609 Z M48.7290039,58 L48.7290039,48.8374023 L57.8388672,48.8374023 L57.8388672,47.8881836 L48.7290039,47.8881836 L48.7290039,39.9384766 L58.6298828,39.9384766 L58.6298828,38.9760742 L47.6875,38.9760742 L47.6875,58 L48.7290039,58 Z M79.0776367,38.9760742 L77.8911133,38.9760742 L70.2314453,56.6420898 L70.1523438,56.6420898 L62.4663086,38.9760742 L61.3061523,38.9760742 L61.3061523,58 L62.3081055,58 L62.3081055,41.1381836 L62.3608398,41.1381836 L69.690918,57.9604492 L70.6928711,57.9604492 L78.0229492,41.1381836 L78.0756836,41.1381836 L78.0756836,58 L79.0776367,58 L79.0776367,38.9760742 Z" id="KOW-Copy"></path>
                    <g id="iPod-Copy-3">
                        <path d="M0.986666667,3.00472296 L0.986666667,3.00472296 L0.986666667,61.995277 C0.986666667,63.1045387 1.86858659,64 2.95754106,64 L34.0424589,64 C35.128227,64 36.0133333,63.1015336 36.0133333,61.995277 L36.0133333,3.00472296 C36.0133333,1.89546134 35.1314134,1 34.0424589,1 L2.95754106,1 C1.87177297,1 0.986666667,1.89846638 0.986666667,3.00472296 L0.986666667,3.00472296 Z M0,3.00472296 C0,1.34526029 1.32775852,0 2.95754106,0 L34.0424589,0 C35.6758638,0 37,1.34269721 37,3.00472296 L37,61.995277 C37,63.6547397 35.6722415,65 34.0424589,65 L2.95754106,65 C1.32413623,65 0,63.6573028 0,61.995277 L0,3.00472296 L0,3.00472296 Z" id="Rectangle-279"></path>
                        <g id="CLICKWHEEL" transform="translate(5.000000, 32.000000)">
                            <path d="M13.5,26.0181818 L13.5,26.0181818 C20.4136009,26.0181818 26.0181818,20.4136009 26.0181818,13.5 C26.0181818,6.58639909 20.4136009,0.981818182 13.5,0.981818182 C6.58639909,0.981818182 0.981818182,6.58639909 0.981818182,13.5 C0.981818182,20.4136009 6.58639909,26.0181818 13.5,26.0181818 L13.5,26.0181818 Z M13.5,27 L13.5,27 C6.04415588,27 0,20.9558441 0,13.5 C0,6.04415588 6.04415588,0 13.5,0 C20.9558441,0 27,6.04415588 27,13.5 C27,20.9558441 20.9558441,27 13.5,27 L13.5,27 Z" id="Oval-5"></path>
                            <path d="M13.5,16.0666667 L13.5,16.0666667 C14.9175309,16.0666667 16.0666667,14.9175309 16.0666667,13.5 C16.0666667,12.0824691 14.9175309,10.9333333 13.5,10.9333333 C12.0824691,10.9333333 10.9333333,12.0824691 10.9333333,13.5 C10.9333333,14.9175309 12.0824691,16.0666667 13.5,16.0666667 L13.5,16.0666667 Z M13.5,17 L13.5,17 C11.5670034,17 10,15.4329966 10,13.5 C10,11.5670034 11.5670034,10 13.5,10 C15.4329966,10 17,11.5670034 17,13.5 C17,15.4329966 15.4329966,17 13.5,17 L13.5,17 Z" id="Oval-5"></path>
                        </g>
                        <g id="Screen" transform="translate(5.000000, 5.000000)">
                            <path d="M0.981818182,0.998746091 L0.981818182,0.998746091 L0.981818182,20.0012539 C0.981818182,19.9989858 0.982817481,20 0.98491548,20 L26.0150845,20 C26.0207242,20 26.0181818,20.0025889 26.0181818,20.0012539 L26.0181818,0.998746091 C26.0181818,1.00101416 26.0171825,1 26.0150845,1 L0.98491548,1 C0.979275771,1 0.981818182,0.997411138 0.981818182,0.998746091 L0.981818182,0.998746091 Z M0,0.998746091 C0,0.447153856 0.435041444,0 0.98491548,0 L26.0150845,0 C26.5590383,0 27,0.44833017 27,0.998746091 L27,20.0012539 C27,20.5528461 26.5649586,21 26.0150845,21 L0.98491548,21 C0.44096168,21 0,20.5516698 0,20.0012539 L0,0.998746091 L0,0.998746091 Z" id="Rectangle-280"></path>
                            <rect id="Rectangle-281" x="7" y="4" width="2" height="3" rx="1"></rect>
                            <rect id="Rectangle-281-Copy" x="18" y="4" width="2" height="3" rx="1"></rect>
                            <path d="M6.03522576,11.6841465 C6.265295,12.2654154 6.77882232,13.1042856 7.65112811,13.9391193 C9.09843215,15.3242507 11.0464423,16.1556511 13.5394402,16.1556511 C16.239936,16.1556511 18.2280466,15.3223063 19.5876349,13.9268078 C20.4134709,13.0791593 20.8435875,12.2253968 21.0035316,11.629814 C21.0751521,11.3631211 20.9170147,11.0888639 20.6503218,11.0172433 C20.3836289,10.9456228 20.1093717,11.1037602 20.0377511,11.3704531 C20.0113061,11.4689262 19.9390757,11.6644778 19.8080926,11.9244737 C19.5847595,12.3677801 19.276752,12.8128901 18.8713724,13.2289768 C17.7005957,14.4306768 15.9710245,15.1556511 13.5394402,15.1556511 C11.3122233,15.1556511 9.60901877,14.4287325 8.34254718,13.2166654 C7.90042046,12.7935313 7.54447475,12.3402437 7.26786,11.8883809 C7.17200119,11.7317912 7.09321213,11.5873812 7.03059929,11.4592157 C6.99478774,11.3859111 6.97324603,11.3368498 6.96504133,11.3161206 C6.8634138,11.0593592 6.57288211,10.9335982 6.31612063,11.0352258 C6.05935915,11.1368533 5.93359823,11.427385 6.03522576,11.6841465 L6.03522576,11.6841465 Z" id="Line"></path>
                        </g>
                    </g>
                </g>
            </g>
        </g>
    </g>
</svg>